<svg xmlns="http://www.w3.org/2000/svg" viewBox="0 0 100 100"><defs><style>.cls-1{isolation:isolate;}.cls-2{fill:#e8f6ef;}.cls-3,.cls-4,.cls-5{mix-blend-mode:soft-light;}.cls-4{opacity:0.2;}.cls-5{opacity:0.5;}.cls-6{fill:#231f20;}.cls-7{fill:#4c4c6d;}.cls-8{fill:#2b2b2b;}</style></defs><g class="cls-1"><g id="facial"><path d="M27.61,69.19s-6.78-2-9.12-.68,6.14,1.7,11.91,6.58c3.08,0,2.06-2.58,2.06-2.58Z"/><path d="M30.18,75.69,30,75.54c-3-2.56-6.85-3.85-9.38-4.7-2.1-.7-3.05-1-3.13-1.8,0-.4.19-.75.69-1,2.49-1.45,8.87.4,9.59.62l.09,0L33,72.12l.07.17a2.74,2.74,0,0,1-.15,2.35,2.81,2.81,0,0,1-2.47,1ZM18.92,69c.46.22,1.31.51,2.09.77a29.33,29.33,0,0,1,9.59,4.77A1.66,1.66,0,0,0,31.88,74,1.41,1.41,0,0,0,32,72.89l-4.6-3.16C25.51,69.19,20.75,68.09,18.92,69Z"/><path d="M70.39,69.19s6.78-2,9.12-.68-6.14,1.7-11.9,6.58c-3.09,0-2.07-2.58-2.07-2.58Z"/><path d="M67.82,75.69H67.6a2.78,2.78,0,0,1-2.46-1A2.67,2.67,0,0,1,65,72.29l.06-.17,5.08-3.47.09,0c.72-.22,7.1-2.07,9.59-.62.5.29.73.64.69,1-.08.78-1,1.1-3.13,1.8C74.84,71.69,71,73,68,75.54ZM66,72.89a1.42,1.42,0,0,0,.08,1.1,1.72,1.72,0,0,0,1.28.5A29.46,29.46,0,0,1,77,69.72c.77-.26,1.62-.55,2.08-.77-1.83-.86-6.59.24-8.43.78Z"/><path class="cls-2" d="M27.61,69.19s-6.78-2-9.12-.68,6.14,1.7,11.91,6.58c3.08,0,2.06-2.58,2.06-2.58Z"/><g class="cls-3"><path d="M27.61,69.19s-6.78-2-9.12-.68,6.14,1.7,11.91,6.58c3.08,0,2.06-2.58,2.06-2.58Z"/><path d="M30.37,75.15h0c-3.11-2.63-7-3.94-9.56-4.8-1.7-.57-2.72-.92-2.77-1.36,0-.17.12-.34.43-.52,2.34-1.36,8.89.59,9.17.67h0l4.86,3.33v0a2.21,2.21,0,0,1-.1,1.86,2.31,2.31,0,0,1-2,.8Zm-9.48-7a4.94,4.94,0,0,0-2.37.45c-.26.15-.38.29-.37.41,0,.36,1.15.74,2.69,1.25,2.57.87,6.46,2.18,9.58,4.81a2.18,2.18,0,0,0,1.9-.75,2.15,2.15,0,0,0,.1-1.73l-4.83-3.31A29,29,0,0,0,20.89,68.11Z"/></g><path class="cls-2" d="M70.39,69.19s6.78-2,9.12-.68-6.14,1.7-11.9,6.58c-3.09,0-2.07-2.58-2.07-2.58Z"/><g class="cls-3"><path d="M70.39,69.19s6.78-2,9.12-.68-6.14,1.7-11.9,6.58c-3.09,0-2.07-2.58-2.07-2.58Z"/><path d="M67.63,75.15h0a2.32,2.32,0,0,1-2-.8,2.21,2.21,0,0,1-.1-1.86v0h0l4.86-3.33h0c.28-.08,6.84-2,9.17-.67.31.18.45.35.43.52,0,.44-1.07.79-2.77,1.36-2.57.86-6.45,2.17-9.56,4.8Zm-2-2.6a2.09,2.09,0,0,0,.09,1.73,2.18,2.18,0,0,0,1.91.75c3.11-2.63,7-3.94,9.58-4.81,1.53-.51,2.64-.89,2.68-1.25,0-.12-.11-.26-.37-.41-2.25-1.31-8.79.6-9.07.68Z"/></g><path d="M49.22,89.57a18.79,18.79,0,0,1-9.73-2.88,25.34,25.34,0,0,1-8.37-8.48A43.14,43.14,0,0,1,26.5,67.85a59.81,59.81,0,0,1-2.43-12.5l0-.53.41-.07c-.14-2.14-.49-7.7-.38-10.75.14-3.83,4.32-9,6.12-11.06,1.57-1.79,7.63-1.46,8.32-1.42h.07l9.8,3.07L64.15,37.7,64.62,39c.31-1.75.45-3,.51-3.56l-.92-1.76,1.53-1.37,2.08,1.08,1.1,3h0c3.17,4.79,2.1,14,1.74,17.11,0,.22-.06.44-.07.6a17.35,17.35,0,0,1,2,4.33c.77,2,1.43,3.91,1.44,3.93l.05.16,0,.16c-1.77,8.17-9.93,19.23-10.28,19.7h0A21.48,21.48,0,0,1,57,87.69,17.41,17.41,0,0,1,49.22,89.57ZM25.38,56.65a60.81,60.81,0,0,0,2.26,10.87c1.85,6,5.51,14,12.46,18.15,5.51,3.29,11,3.62,16.32,1a20.62,20.62,0,0,0,6.44-5c.26-.34,8.26-11.25,10-19.07-1.17-3.41-2.71-7.27-3.23-7.73l-.29-.16V54.3c0-.15,0-.41.1-1,.36-3.09,1.45-12.51-1.86-16.75l-.38-.49.26-.18-.62-1.68-1-.49-.23.21.65,1.26v.17a56.45,56.45,0,0,1-1,5.94l-.43,2-1.69-4.58-15.17-3h0l-9.7-3c-2.38-.14-6.39,0-7.28,1-1.33,1.52-5.7,6.77-5.82,10.31s.43,11.4.44,11.48l.11,1.54Zm44.29-1.84h0Z"/><path class="cls-2" d="M73.51,62.51c-.15.66-.33,1.35-.56,2.05a54.49,54.49,0,0,1-5.21,10.76C65.43,79.16,63.33,82,63.33,82s-7.75,9.84-19.17,6.2h0a20.9,20.9,0,0,1-3.88-1.72l-.46-.27c-5.56-3.31-9.1-9-11.34-14.57l-.3-.76c-.65-1.72-1.18-3.42-1.62-5a57.93,57.93,0,0,1-1.87-10.52s.16,0,.45.25c0,0-.27-3.53-.4-7-.06-1.67-.09-3.32-.05-4.55.14-3.77,4.55-9.06,6-10.69s7.84-1.22,7.84-1.22l9.77,3.06,15.47,3,1.09,3a56.28,56.28,0,0,0,.94-5.88L65,33.79l.88-.79,1.51.79.87,2.32-.13.09c2.75,3.53,2.6,10.37,2.25,14.57,0,.54-.1,1-.15,1.48h0c-.11,1.1-.22,1.84-.22,2a.47.47,0,0,1,.12.09C71.09,55.41,73.51,62.51,73.51,62.51Z"/><g class="cls-4"><path d="M47.47,83.19a15.48,15.48,0,0,0,5.32,0C52.21,84.41,48.57,84.76,47.47,83.19Z"/></g><g class="cls-3"><path d="M38.3,34.76S33.55,42.7,36.47,51s12.61-.87,12.61-.87L45.83,38.08Z"/></g><g class="cls-3"><path d="M65.83,33s2.66,13.79-5.48,23.65c.86-5.92,1.73-16.8,1.73-16.8l1.22-5.5L65.83,33"/></g><g class="cls-4"><path d="M31.85,72.28a6.13,6.13,0,0,1-3.7-1.43,59.16,59.16,0,0,1-3.49-15.54s.16,0,.45.25c0,0-.27-3.53-.4-7,2.26-.53,5.11-.77,4.61,1.6-.8,3.78,3.69,7.22,3.82,7.31-.11-.07-3.72-2.48-4-3.58C28.4,55.74,28.73,66.7,31.85,72.28Z"/></g><g class="cls-4"><path d="M41.59,52.23s-.51,7.45,9.33,7.91c-3.31-3-2.85-5.6-2.85-5.6s1.42,6.3,8.89,5.71c0,0-2.61-4.19.74-10.36a17.92,17.92,0,0,1-.54,9C60.62,54.64,62,48.22,62,48.22l-.39-8.92s-11.87-.47-12.89,0S41.59,43,41.59,43Z"/></g><path d="M68,64.16c.2-.32.4-.62.61-.9A2.94,2.94,0,0,1,68,64.16Z"/><path d="M70.33,50.77c0,.54-.1,1-.15,1.48,0-.87,0-1.41,0-1.41Z"/><g class="cls-3"><path d="M73.51,62.51c-.15.66-.33,1.35-.56,2.05a54.49,54.49,0,0,1-5.21,10.76c2.42-5.25,4.85-11.73,4.9-11.88a40.9,40.9,0,0,1-5.58,7.41c1.72-2.35,4.34-10.58,4.38-10.71a15.84,15.84,0,0,0-2.85,3.12c.91-2,1.32-5.94,1.49-8.87C71.09,55.41,73.51,62.51,73.51,62.51Z"/></g><g class="cls-5"><path d="M31.55,55.08s3.56,2.63,6.41,1.57c-4.07.43-6.31-.39-6.41-1.57"/></g><g class="cls-5"><path d="M62.9,60.14a7,7,0,0,0,7.28-2.65C70.79,58.44,65.86,60.22,62.9,60.14Z"/></g><path class="cls-6" d="M97.21,50.71l-1.53-2.93C90,37,83.5,31.42,79,28.67A28.16,28.16,0,0,0,73.66,26c2.81-.19,7-.14,10,1.32l4.35,2.06-3.72-3.06c-5.66-4.66-11.26-5.17-16.2-5.61l-1.32-.13a30.52,30.52,0,0,0-14-9.17,20.13,20.13,0,0,0-9.52-.74l-2.66.62,2.68.54a5.3,5.3,0,0,1,3.42,2.4,22.56,22.56,0,0,0-10.95-1.19,20.62,20.62,0,0,0-9.07,3.09l-2.09,1.61,2.58-.56a10.68,10.68,0,0,1,7.05,1.12,35.78,35.78,0,0,0-13.72,6.05,44,44,0,0,0-6.44,5.42L12.1,32l2.7-1.22a26.53,26.53,0,0,1,4.56-1.28,27.2,27.2,0,0,0-7.53,9.4,38.51,38.51,0,0,0-2.94,7.55l-.54,2.17L9.89,47c.06,0,4.76-4.94,8.52-6.71-3,7-11.1,15.05-13.36,16.68L2.79,58.57,5.52,58a17.75,17.75,0,0,1,7.11-.33l-.44.12c-.62.28-.64.58-1,1.77a1.48,1.48,0,0,1,1.17-.6h.06c2.68,0,4.82,5.64,6.54,10.18a41.44,41.44,0,0,0,2.72,6.23A9.18,9.18,0,0,0,24.12,78a11.42,11.42,0,0,1-1.44-3.19c-2.5-5-2.47-9.86.07-14.47,1,6.19,6.05,10.66,7.36,11.09l1.31.44-.59-1.25a31.39,31.39,0,0,1-2.47-16.79,6,6,0,0,0,2.44,2.11l1.72.77-1-1.61c-1.34-2.22-1.44-5-.3-8.37a24.59,24.59,0,0,1,6.28-9.58,18.48,18.48,0,0,0,.68,10.34A13.93,13.93,0,0,0,42.3,53.7l.33.23c.07.26.15.5.23.74A5.15,5.15,0,0,0,46,58.06l1.89.55L46.62,57.1a7.69,7.69,0,0,1-1.5-5.94c.63,3.33,1.84,5.7,3.6,7.06A6.42,6.42,0,0,0,54,59.36l.92-.18-.56-.76c-1.37-1.85,0-5.38,1.55-9.11l.39-1a63.65,63.65,0,0,1,.11,7.75l-.11,2.38,1.21-2c.09-.13,1.75-3,3.29-9.16a20.32,20.32,0,0,1-.64,6c-.13.55-.25,1.07-.35,1.62l-.93,5.32,2.07-5a73.93,73.93,0,0,0,5.42-19.66c3,4.45,3.43,10.69,3.2,15.31A53.31,53.31,0,0,1,68.05,61l-.36,1.35,1.22-.67a4,4,0,0,0,.78-.61,26.69,26.69,0,0,1-1.15,6.78l-1.05,2.8,2-2.19a37.27,37.27,0,0,0,3.85-4.67,34.7,34.7,0,0,1-1.59,8.84l-.53,1.55,1.4-.84c6.12-3.68,7.82-9.35,8.64-13,1,3,2.87,3.47,5,4,.48.13,1,.26,1.49.43l2.11.71L88.4,63.88C84,59,83.77,52,83.58,47a21.3,21.3,0,0,0-.56-5.3c5.26,1,11.66,6.76,11.73,6.83ZM82,40.34l-1.64-.1,1.19,1.12c.7.66.79,3,.89,5.65.18,4.77.41,11.14,3.95,16.18C84,62.56,82.46,62,81.9,57.55l-.36-2.89-.8,2.8c-.13.44-.24,1-.38,1.62-.69,3.26-1.82,8.56-7,12.34a34.76,34.76,0,0,0,1.19-9.79l-.08-2.18-1,1.91a25.75,25.75,0,0,1-3.16,4.46A43.66,43.66,0,0,0,71,59.29l.08-2.18L69.88,59a3.62,3.62,0,0,1-.22.32,55.07,55.07,0,0,0,1-8.27,36.34,36.34,0,0,0-.59-9,18.24,18.24,0,0,0-3.76-8.27l-.88-1.05L65.32,34A69.31,69.31,0,0,1,61.94,49.2a27.78,27.78,0,0,0-.4-5.71L61,40.18l-.64,3.28a56,56,0,0,1-2.76,9.8,33.91,33.91,0,0,0-.56-7.32l-.49-1.84-.65,1.78c-.36,1-.77,2-1.16,3-1.45,3.61-2.84,7-1.87,9.44a5.08,5.08,0,0,1-3.45-1c-2-1.59-3.25-4.86-3.56-9.74l-.2-3.16-1,3a13.68,13.68,0,0,0-.59,7.23L44,54.26c-.81-2.17-.7-5.27.32-9L43.16,45c-.24.77-.46,1.45-.65,2a17,17,0,0,0-1,4.14A17.19,17.19,0,0,1,39.07,36l.36-1.17-1.14.44c-2,.8-6.37,5.81-8.17,11.11a12.43,12.43,0,0,0-.51,7.19A3.45,3.45,0,0,1,28.85,51l-1.17-.21a29.42,29.42,0,0,0-.75,6.34,32.39,32.39,0,0,0,2,12c-2-1.9-5-5.88-5.15-10.62l-.05-1.84-1,1.52a16.33,16.33,0,0,0-3.05,9.46c-1.38-3.6-2.83-7.1-4.73-8.8a3.19,3.19,0,0,1,.56.39l2.4,2.08-1.49-2.8c-.07-.14-1.69-3-8.91-2,3.64-3.32,10.39-10.7,12.54-17l.36-1.07-1.08.31c-2.86.8-6.47,3.88-8.56,5.83a41.06,41.06,0,0,1,2.18-5.11c1.82-3.55,5-8.27,9.78-10.54l3.69-1.76-4,.64a54.84,54.84,0,0,0-5.49,1.12,47.14,47.14,0,0,1,4.42-3.5c3.51-2.45,9-5.5,15-6.08l1.88-.18-1.64-.93a15.85,15.85,0,0,0-6.7-2.3c4.2-1.76,12.06-3.15,18.6.49l2.44,1.36-1.68-2.24-.5-.68a13.41,13.41,0,0,0-2.85-3.17c4.45-.11,12.77,1.53,20.28,10l.15.17.23,0,1.57.15c4,.37,8.19.74,12.48,3.21a32.22,32.22,0,0,0-10.16.08l-3.92.71,4,.46a22.33,22.33,0,0,1,8.1,3.33c3.93,2.44,9.51,7.14,14.65,15.93C90.4,43.57,85.83,40.57,82,40.34Z"/><path class="cls-7" d="M81.92,40.93c2.37,2.24-1.08,15.33,6,23.34-3.26-1.09-5.9-.68-6.65-6.65-.81,2.85-1.29,10.58-9,15.2A34.68,34.68,0,0,0,74,61.65,30.87,30.87,0,0,1,69.1,68c.9-2.38,1.19-6.24,1.28-8.78a5.63,5.63,0,0,1-1.76,1.89s4.7-17.41-2.28-26.54c-.14-.18-.28-.36-.43-.53-.13,1.15-.28,2.28-.45,3.38A73.24,73.24,0,0,1,60.35,55c.38-2.16,1.19-4.12,1-8.06a32.7,32.7,0,0,0-.37-3.4c-.44,2.24-.92,4.15-1.39,5.77A31.64,31.64,0,0,1,57,56.13s.09-1.84.06-4.06a28.65,28.65,0,0,0-.54-6c-1.08,3-2.49,5.93-3.06,8.4-.4,1.72-.39,3.2.41,4.28-2.49.49-6-.19-7.68-5.86a24.2,24.2,0,0,1-.86-5.33,16.23,16.23,0,0,0-.81,4.11,8.13,8.13,0,0,0,1.69,5.8c-1.27-.37-3.54-2.28-3.31-7.32a23.19,23.19,0,0,1,.87-5c-.64,2-1.11,3.4-1.39,4.43a4.11,4.11,0,0,0,.3,3.64c-2.1-1.49-6.85-8.55-4.14-17.43-1.58.61-5.18,4.54-7.19,9.14A13.76,13.76,0,0,0,30,52.56a7.69,7.69,0,0,0,1,2.82,5.6,5.6,0,0,1-1.87-1.48A4,4,0,0,1,28.26,51a32.26,32.26,0,0,0,.4,15.47,28.09,28.09,0,0,0,1.52,4.17,2.56,2.56,0,0,1,.11.24c-1.11-.37-5.95-4.69-6.94-10.59a12.64,12.64,0,0,1-.18-1.76,18.82,18.82,0,0,0-1.71,3.07,15.12,15.12,0,0,0-1.08,3.8,16.14,16.14,0,0,0,1.77,9.69c-2.78-4.55-5.22-16.83-9.83-16.69a7.86,7.86,0,0,1,1.6-.36,2.67,2.67,0,0,1,1.92.76c0-.06-1.28-2.26-6.83-1.87a25.87,25.87,0,0,0-3.61.52c2.44-1.77,11.53-10.79,14-18.18a10,10,0,0,0-2.33,1,37.18,37.18,0,0,0-6.3,5C10,46,9.5,46.53,9.47,46.56s3.42-13.72,13-18.25a34.49,34.49,0,0,0-7.86,1.9c.11-.12,7.38-7.84,17-10.63a25.23,25.23,0,0,1,4.61-.9c-2.65-1.49-5.64-2.78-9.1-2,2.92-2.24,13.3-5.43,21.58-.82-2-2.71-2.85-4.07-5.23-4.54,3.19-.75,13.71-.62,23.07,9.9,5.43.54,11.33.61,17.44,5.63-5.29-2.51-13.5-1-13.5-1s13,1.47,23.74,20.5c.32.57.63,1.15,1,1.75C95,48,87.58,41.27,81.92,40.93Z"/><g class="cls-4"><path d="M20.86,37.61C20.51,41.84,14.72,51.44,9,56.9a25.87,25.87,0,0,0-3.61.52c2.44-1.77,11.53-10.79,14-18.18a10,10,0,0,0-2.33,1C19.29,38.17,19.59,37.8,20.86,37.61Z"/></g><g class="cls-4"><path d="M22.15,75.06c-2.78-4.55-5.22-16.83-9.83-16.69a7.86,7.86,0,0,1,1.6-.36c2.5.85,4.71,3.18,6.46,7.36A16.14,16.14,0,0,0,22.15,75.06Z"/></g><g class="cls-4"><path d="M30.18,70.61a2.56,2.56,0,0,1,.11.24c-1.22-.41-6.92-5.56-7.12-12.35a18.82,18.82,0,0,0-1.71,3.07c-.11-3.35.43-4.23,2.25-4.92C23.71,56.65,24.06,65.65,30.18,70.61Z"/></g><g class="cls-4"><path d="M22.42,28.31a34.49,34.49,0,0,0-7.86,1.9c.11-.12,7.38-7.84,17-10.63l3.72.63s-11.9,4.71-15.64,7.43c4.45-.31,5,.91,5,.91S12.35,39.36,10.81,45.24C10,46,9.47,46.56,9.47,46.56S12.86,32.86,22.42,28.31Z"/></g><path d="M30,52.56a7.69,7.69,0,0,0,1,2.82,5.6,5.6,0,0,1-1.87-1.48c.11-1.34.24-2,.24-2Z"/><g class="cls-4"><path d="M30.18,70.61a2.56,2.56,0,0,1,.11.24c-1.11-.37-5.95-4.69-6.94-10.59a21.82,21.82,0,0,1,4.57-10.83c-.06.14-3.26,7.22.74,17A28.09,28.09,0,0,0,30.18,70.61Z"/></g><g class="cls-4"><path d="M42.64,53.21c-2.1-1.49-6.85-8.55-4.14-17.43-1.58.61-5.18,4.54-7.19,9.14a13.58,13.58,0,0,1,7.26-9.62c.41,1.29-1.11,8.4,3.77,14.27A4.11,4.11,0,0,0,42.64,53.21Z"/></g><g class="cls-4"><path d="M46.17,57.49c-1.27-.37-3.54-2.28-3.31-7.32a16.94,16.94,0,0,0,1.62,1.52A8.13,8.13,0,0,0,46.17,57.49Z"/></g><g class="cls-4"><path d="M53.83,58.77c-2.49.49-6-.19-7.68-5.86a21.15,21.15,0,0,0,2.93,1.59,5,5,0,0,0,4.34,0C53,56.21,53,57.69,53.83,58.77Z"/></g><g class="cls-4"><path d="M59.57,49.35A31.64,31.64,0,0,1,57,56.13s.09-1.84.06-4.06A25.38,25.38,0,0,0,59.57,49.35Z"/></g><g class="cls-4"><path d="M63.87,42.22c.58-1.64,1.13-3.31,1.59-4.76A73.24,73.24,0,0,1,60.35,55c.38-2.16,1.19-4.12,1-8.06A22.87,22.87,0,0,0,63.87,42.22Z"/></g><g class="cls-4"><path d="M95.15,48.05c-.12-.1-7.57-6.78-13.23-7.12,2.37,2.24-1.08,15.33,6,23.34-3.26-1.09-5.9-.68-6.65-6.65-.81,2.85-1.29,10.58-9,15.2A34.68,34.68,0,0,0,74,61.65,30.87,30.87,0,0,1,69.1,68c.9-2.38,1.19-6.24,1.28-8.78a5.63,5.63,0,0,1-1.76,1.89s4.7-17.41-2.28-26.54c.24-.79.38-1.28.38-1.28s7.81,13.57,6.79,22.8c1.73-6.51.07-9.44,0-9.56.12.13,4.2,4.68,3.87,9.29a19.5,19.5,0,0,0,.67-7.19c4.72,6.31,5.86,11,5.91,11.18,0-.25-1.26-8.4-1.55-12.34a81.56,81.56,0,0,0-1.1-8.21s8.25,1.71,12.89,7C94.52,46.87,94.83,47.45,95.15,48.05Z"/></g><g class="cls-4"><path d="M40.25,86.45l-.46-.27c-5.56-3.31-9.1-9-11.34-14.57l-.3-.76c-.65-1.72-1.18-3.42-1.62-5L27.89,68S31.28,81,40.25,86.45Z"/></g><path class="cls-2" d="M62,25.91c4.38.2,9.67,5.08,10.38,8.44-5.29-4.58-8.24-4.27-14.34-4.88a5.1,5.1,0,0,1,4.07,5.19,14.59,14.59,0,0,0-8.45-3.6c1,1.79.41,4.11-2.24,8.79C50.37,32.42,45.9,29.26,44,27c-.61,1-3,8.24-3,8.24s-1.22-5.7-.61-8.75C37.57,25.2,29,29.81,28.9,29.87a34.65,34.65,0,0,1,12.11-7c-7.87-1.68-15.43.71-17.28,1.37l-.21.08-.18.07h0A36.69,36.69,0,0,0,19.67,26c1.09-.89,3.34-2.54,3.34-2.54l.28-.17A31.13,31.13,0,0,1,36.2,18.68c-2.65-1.49-5.64-2.78-9.1-2,2.92-2.24,13.3-5.43,21.58-.82-2-2.71-2.85-4.07-5.23-4.54,3.19-.75,13.71-.62,23.07,9.9,5.43.54,11.33.61,17.44,5.63-5.29-2.51-13.5-1-13.5-1a21.62,21.62,0,0,1,7.73,3.05C72,26.85,66.25,25.36,62,25.91Z"/><path d="M23.36,24.42l0-.11.18-.07,0,.11-.17.07h0Z"/><ellipse cx="40.96" cy="71.34" rx="1.93" ry="3.13"/><ellipse cx="59.09" cy="71.34" rx="1.93" ry="3.13"/><path d="M44,65.47a.53.53,0,0,1-.34-.11,7.34,7.34,0,0,0-8.37,0,.59.59,0,0,1-.82-.13.58.58,0,0,1,.13-.83,9.06,9.06,0,0,1,3-1.32,8.08,8.08,0,0,1,6.73,1.32.59.59,0,0,1,.14.82A.58.58,0,0,1,44,65.47Z"/><path d="M64.43,65.47a.58.58,0,0,1-.35-.11,7.33,7.33,0,0,0-8.36,0,.59.59,0,0,1-.7-1,9.18,9.18,0,0,1,3-1.32,8.08,8.08,0,0,1,6.73,1.32.59.59,0,0,1-.34,1.07Z"/><path d="M50.27,80.94a14.45,14.45,0,0,1,2.54.23,15.06,15.06,0,0,1,2.13.53l.51.18a.35.35,0,0,1,.21.45.36.36,0,0,1-.46.22l-.48-.17a15.07,15.07,0,0,0-2-.51,13.4,13.4,0,0,0-4.51-.05,15.1,15.1,0,0,0-2,.44c-.29.09-.58.18-.87.29a.36.36,0,0,1-.46-.22.35.35,0,0,1,.22-.45c.3-.11.61-.21.9-.3a15.42,15.42,0,0,1,2.07-.47A14.72,14.72,0,0,1,50.27,80.94Z"/><path class="cls-2" d="M48.14,81a15.54,15.54,0,0,1-2.09.5l.77-2Z"/><path d="M48.22,81.18h0a15.48,15.48,0,0,1-2.11.51.17.17,0,0,1-.16-.06.17.17,0,0,1,0-.18l.77-2.06a.18.18,0,0,1,.13-.11.18.18,0,0,1,.17.06l1.31,1.55a.21.21,0,0,1,0,.17A.31.31,0,0,1,48.22,81.18Zm-1.89.11a14.9,14.9,0,0,0,1.5-.36l-.95-1.12Z"/><path class="cls-2" d="M54.37,81.67a14.76,14.76,0,0,1-2-.5l1.82-1.52Z"/><path d="M52.28,81.32a.16.16,0,0,1-.09-.12.18.18,0,0,1,.06-.17l1.82-1.52a.19.19,0,0,1,.18,0,.21.21,0,0,1,.11.15l.19,2a.2.2,0,0,1-.06.15.16.16,0,0,1-.15,0,13.7,13.7,0,0,1-2-.51ZM54,80l-1.31,1.09a11.66,11.66,0,0,0,1.44.36Z"/></g><g id="Title"><path d="M66.51,63.81h-12a6.55,6.55,0,0,0-3.14,1,2.86,2.86,0,0,1-1.4.36,2.93,2.93,0,0,1-1.41-.36,6.59,6.59,0,0,0-3.15-1h-12a3.12,3.12,0,0,0-3.12,3.12v9.28a3.11,3.11,0,0,0,3.12,3.11h10.2A6.39,6.39,0,0,0,48,77.41a2.86,2.86,0,0,1,4,0,6.39,6.39,0,0,0,4.33,1.91H66.51a3.12,3.12,0,0,0,3.12-3.12V66.93A3.13,3.13,0,0,0,66.51,63.81ZM48.83,74.46a3.11,3.11,0,0,1-3.12,3.11H34.94a3.1,3.1,0,0,1-3.11-3.11V68.67a3.11,3.11,0,0,1,3.11-3.11H45.71a3.12,3.12,0,0,1,3.12,3.11Zm19.28,0A3.11,3.11,0,0,1,65,77.57H54.21a3.1,3.1,0,0,1-3.1-3.11V68.67a3.11,3.11,0,0,1,3.1-3.11H65a3.12,3.12,0,0,1,3.11,3.11Z"/><path d="M68.11,68.67v5.79A3.11,3.11,0,0,1,65,77.57H54.21a2.94,2.94,0,0,1-1.29-.29,3,3,0,0,1-1.29-1.09,3.09,3.09,0,0,1-.52-1.73V68.67a3.11,3.11,0,0,1,3.1-3.11H65A3.12,3.12,0,0,1,68.11,68.67Z"/><path d="M48.83,68.67v5.79a3.11,3.11,0,0,1-3.12,3.11H34.94a3.08,3.08,0,0,1-2.9-2,2.92,2.92,0,0,1-.21-1.11V68.67a3.11,3.11,0,0,1,3.11-3.11H45.71a3.08,3.08,0,0,1,1,.15A3.13,3.13,0,0,1,48.83,68.67Z"/><path class="cls-8" d="M40.79,65.56,32,75.57a2.92,2.92,0,0,1-.21-1.11V72.22L38,65.56Z"/><path class="cls-8" d="M46.68,65.71,40.33,77.57H38.06l5.7-12h2A3.08,3.08,0,0,1,46.68,65.71Z"/><path class="cls-8" d="M57.16,65.56,52.92,77.28a3,3,0,0,1-1.29-1.09L55,65.56Z"/><polygon class="cls-8" points="64.27 65.56 58.19 77.57 56.58 77.57 63.07 65.56 64.27 65.56"/></g></g></svg>